<?xml version="1.0" encoding="utf-8"?>
<!-- Svg Vector Icons : http://www.onlinewebfonts.com/icon -->
<!DOCTYPE svg PUBLIC "-//W3C//DTD SVG 1.1//EN" "http://www.w3.org/Graphics/SVG/1.1/DTD/svg11.dtd">
<svg version="1.1" xmlns="http://www.w3.org/2000/svg" xmlns:xlink="http://www.w3.org/1999/xlink" x="0px" y="0px" viewBox="0 0 256 256" enable-background="new 0 0 256 256" xml:space="preserve">
<metadata> Svg Vector Icons : http://www.onlinewebfonts.com/icon </metadata>
<g><g><g><path stroke-width="2" fill-opacity="0" stroke="#000000"  d="M128.8,10.2c-14.3,0.7-32.7,4.2-44.4,8.5l-2.9,1.1l-2.8,6.8c-3.9,9.5-8.3,18.3-11.4,22.9c-2,2.9-2.6,4.4-2.6,5.6c0,5.3,8.1,13.5,17.6,17.8c1.7,0.8,2.9,1.6,2.7,1.8c-0.2,0.2-1.8,1.4-3.5,2.6c-1.7,1.3-4.3,3.3-5.8,4.6c-3.6,3-14.3,13.4-14.3,13.9c0,0.6,5,0.4,8.6-0.3c1.9-0.4,5.2-1.4,7.5-2.1c5.1-1.7,7.1-1.7,15-0.1c5.3,1.1,6.4,1.5,8.4,3c1.3,1,4.1,2.9,6.2,4.2c2.2,1.3,4.1,2.7,4.3,3.1c0.4,0.9-2.1,2.9-3.6,2.9c-0.7,0-2.6-0.7-4.1-1.5c-3-1.5-12-5.2-12.2-5c-0.2,0.2,3.6,2.9,5.7,3.9c1,0.5,3.1,1.3,4.7,1.7c3.8,1.1,8.7,3.8,15.5,8.6c6.7,4.7,9.2,7.1,8.9,8.9c-0.2,2.1-1.7,1.8-6.7-1.1c-2.5-1.5-6.3-3.5-8.4-4.5c-3.8-1.9-11.5-4.8-11.9-4.4c-0.2,0.3,8.5,4.5,9.2,4.5c1.4,0,15.5,8,17.7,10c1.3,1.2,1.3,2.7,0.2,3.8c-0.8,0.7-1.1,0.7-2.8,0.1c-1.1-0.4-3.5-1.5-5.4-2.6c-3.8-2.1-11-4.9-17.7-6.8c-2.4-0.7-4.8-1.4-5.1-1.5c-0.5-0.2-0.6-0.1-0.2,0.3c0.3,0.3,2.2,1.2,4.1,1.9c2,0.7,7.3,3.4,11.7,5.8c6.6,3.7,8.2,4.7,8.5,5.7c0.2,0.7,0.1,1.5-0.1,2c-0.9,1.5-2.8,1.1-8.9-1.6c-7.4-3.3-19.8-8.3-20.1-8c-0.4,0.4,7.5,4.7,11,5.9c3.7,1.3,6.1,3,6.1,4.3c0,1-2.3,2.8-3.7,2.8c-0.8,0-5.1-1.3-9.7-2.8c-4.5-1.5-11.3-3.6-14.9-4.4c-8-1.9-11.7-3.7-19.3-9.5c-8.1-6-7.9-5.9-12.8-4.4c-2.9,0.9-3.2,1.1-4.3,3.3c-10.9,21.5-8.9,47.7,5.5,70.8c3.5,5.7,8.1,11.5,15.4,19.7c3.7,4.1,7.6,8.7,8.7,10.3c2.8,3.8,4.1,8.2,4.1,13.6c0,4.3-0.5,6-2.4,8.6l-0.7,1h64.6h64.6l3.7-5.8c6.6-10,9.7-16.7,12-25.7c1.8-7,2.2-17.3,0.7-24.2c-1.3-6.4-4.9-15.9-9.4-24.6c-3.3-6.6-9.5-17.3-10.2-17.7c-0.1-0.1-4.1,3.4-8.7,7.8c-9.1,8.7-14.2,13-19,16.4c-1.7,1.2-5.6,4.5-8.5,7.3c-5.3,5.1-5.4,5.1-15.1,10.1c-5.3,2.7-13.1,6.8-17.1,9.1c-8.7,4.9-14,6.8-24.4,8.9c-8.5,1.7-16.1,2.1-27.5,1.5c-8.5-0.4-10-0.8-9.4-2.3c0.4-1.1,1.1-1.5,2.9-1.5c2.6,0,0.3-0.8-2.7-0.8c-4.6-0.1-5.9-1.4-3.7-3.5c0.9-0.9,1.7-1.2,5.2-1.4c7.4-0.6,7.5-1.1,0.1-1.1c-7.2,0-7.9-0.2-7.9-2.2c0-1.5,2.4-4.1,4.5-4.8c1-0.3,5.1-0.7,9-1c5.7-0.3,8.5-0.7,12.9-1.9c12.6-3.3,19.3-6.2,19.8-8.6c0.2-1.1-1.7-1-10,0.1c-11.4,1.7-11.7,1.7-12.6,0.4c-1-1.4-0.9-2.9,0.1-3.9c0.5-0.5,4.1-2.1,8.1-3.6c4-1.5,9.7-3.9,12.8-5.3c3-1.4,6.8-2.8,8.4-3.1c2.9-0.5,3.1-0.5,11.8,1.1c8.1,1.5,14.9-1.4,24.9-10.7c8.9-8.3,23.8-28.1,32.9-43.8c1.4-2.4,3.9-6.6,5.4-9.4c9.1-15.6,15.2-35.1,17.6-56.1l0.7-5.8l-2-2.2c-5.1-5.8-14.2-12.4-23.3-16.9C168.6,12.5,150.9,9.2,128.8,10.2z"/></g></g></g>
</svg>